<?xml version="1.0" encoding="UTF-8"?>
<svg xmlns="http://www.w3.org/2000/svg" viewBox="0 0 500 500">
  <defs>
    <style>
      .cls-1 {
        fill: #265587;
      }

      .cls-1, .cls-2, .cls-3, .cls-4, .cls-5, .cls-6, .cls-7, .cls-8 {
        stroke-width: 0px;
      }

      .cls-2 {
        fill: #c0d5d8;
      }

      .cls-3 {
        fill: #eee;
      }

      .cls-4 {
        fill: #38419d;
      }

      .cls-5 {
        fill: #000e77;
      }

      .cls-6 {
        fill: #4eb4cc;
      }

      .cls-7 {
        fill: #4a0e36;
      }

      .cls-8 {
        fill: #6270b2;
      }
    </style>
  </defs>
  <g id="BACKGROUND">
    <rect class="cls-4" width="500" height="500"/>
  </g>
  <g id="OBJECTS">
    <g>
      <path class="cls-5" d="M343.55,220.67c-6.69,2.52-11.14-1.21-13.15-3.65-2.54-3.08-3.09-4.51-4.57-7.68-.03-.08-.06-.16-.1-.23-3.91-8.97-12.57-13.85-19.35-10.9l-21.49,9.36c-6.78,2.95-15.45-1.93-19.35-10.9-3.91-8.97-1.58-18.64,5.2-21.59l70.6-30.75c6.49-2.82,8.89-11.79,5.67-20.42l.05.03c-1.7-4.36-2.48-5.52-3.08-10.02-.42-3.13-.12-8.93,6.29-12.12l26.03-11.35c6.78-2.95,9.11-12.62,5.2-21.59-3.91-8.97-12.57-13.85-19.35-10.9l-16.94,7.38c-6.69,2.52-11.14-1.21-13.15-3.65-2.25-2.73-2.94-4.17-4.1-6.66-.16-.43-.33-.86-.51-1.29-3.91-8.97-12.57-13.85-19.35-10.9l-227.15,98.92c-6.78,2.95-9.11,12.62-5.2,21.59,3.91,8.97,12.57,13.85,19.35,10.9l19.96-8.69c6.78-2.95,15.45,1.93,19.35,10.9,3.91,8.97,1.58,18.64-5.2,21.59l-41.45,18.05c-6.78,2.95-9.11,12.62-5.2,21.59,3.91,8.97,12.57,13.85,19.35,10.9l36.83-16.04c6.78-2.95,15.45,1.93,19.35,10.9,3.91,8.97,1.58,18.64-5.2,21.59l-85.95,37.43c-6.78,2.95-9.11,12.62-5.2,21.59s12.57,13.85,19.35,10.9l70.6-30.75c6.78-2.95,15.45,1.93,19.35,10.9,3.91,8.97,1.58,18.64-5.2,21.59l2.73-1.19c-6.78,2.95-9.11,12.62-5.2,21.59,3.91,8.97,12.57,13.85,19.35,10.9l4.96-2.16c6.78-2.95,15.45,1.93,19.35,10.9,3.91,8.97,1.58,18.64-5.2,21.59l1.52-.66c-6.78,2.95-9.11,12.62-5.2,21.59,3.91,8.97,12.57,13.85,19.35,10.9l227.15-98.92c6.78-2.95,9.11-12.62,5.2-21.59-3.91-8.97-12.57-13.85-19.35-10.9l-6.14,2.67c-6.78,2.95-15.45-1.93-19.35-10.9-3.91-8.97-1.58-18.64,5.2-21.59l40.25-17.53c6.78-2.95,9.11-12.62,5.2-21.59-3.91-8.97-12.57-13.85-19.35-10.9l-1.97.86c-5.76,1.37-9.64-1.94-11.47-4.16-2.43-2.95-3.04-4.39-4.39-7.29-.11-.27-.22-.55-.34-.82-3.91-8.97-12.57-13.85-19.35-10.9l-55.24,24.05Z"/>
      <g>
        <path class="cls-6" d="M125.82,424.35l.02-.05c3.31,7.46,10.39,11.65,16.25,9.41l50.77-19.35c-4.57-3.51-8.47-7.97-11.62-12.61-10.65-15.68-17.06-35.13-20.33-53.72-1.23-6.99-2.29-14.06-3.03-21.17l-57.67,21.98c-6.12,2.33-8.59,10.8-5.5,18.9.15.39.31.76.47,1.13.81,2.29,1.27,3.63,1.53,6.76.24,2.79-.26,7.91-6.07,10.46l-15.3,5.83c-6.12,2.33-8.59,10.8-5.5,18.9,3.09,8.11,10.56,12.78,16.68,10.45l23.52-8.95c6.03-1.95,9.82,1.53,11.49,3.77,2.41,3.22,2.63,4.44,4.26,8.26Z"/>
        <path class="cls-6" d="M111.59,321.19c3.49,9.15,11.91,14.42,18.82,11.79l87.6-33.38c6.91-2.63,15.34,2.65,18.82,11.79.9,2.37,1.38,4.77,1.48,7.07,12.27-3.66,24.55-7.3,36.5-11.9,8.96-4.2,17.41-9.11,25.68-14.65,9.37-6.27,18.29-14.1,28.74-18.52,5.19-3.01,10.67-4.93,16.44-5.8-2.36-8.47.49-16.82,6.87-19.25l21.9-8.35c6.91-2.63,9.69-12.18,6.2-21.33-.03-.08-.06-.16-.09-.24-1.16-3.3-1.76-4.7-2.1-8.69-.27-3.15.3-8.93,6.85-11.81l56.3-21.46c6.91-2.63,9.69-12.18,6.2-21.33-.11-.28-.22-.55-.33-.82-1.06-3.01-1.63-4.47-1.96-8.28-.25-2.87.21-7.95,5.28-11l2.01-.76c6.91-2.63,9.69-12.18,6.2-21.33-3.49-9.15-11.91-14.42-18.82-11.79l-41.02,15.63c-6.91,2.63-15.34-2.64-18.82-11.79-3.49-9.15-.71-18.69,6.2-21.33l6.26-2.38c6.91-2.63,9.69-12.18,6.2-21.33-3.48-9.15-11.91-14.42-18.82-11.79l-231.51,88.22c-6.91,2.63-9.69,12.18-6.2,21.33,3.49,9.15,11.91,14.42,18.82,11.79l-1.55.59c6.91-2.63,15.34,2.65,18.82,11.79,3.49,9.15.71,18.7-6.2,21.33l-5.05,1.92c-6.91,2.63-9.69,12.18-6.2,21.33,3.49,9.15,11.91,14.42,18.82,11.79l-2.78,1.06c6.91-2.63,15.34,2.65,18.82,11.79,3.49,9.15.71,18.7-6.2,21.33l-71.96,27.42c-6.91,2.63-9.69,12.18-6.2,21.33Z"/>
      </g>
    </g>
    <g>
      <rect class="cls-7" x="138" y="71.06" width="224" height="344" rx="11" ry="11"/>
      <rect class="cls-8" x="153" y="93.06" width="192" height="294"/>
    </g>
    <g>
      <path class="cls-3" d="M267.73,162.33h-3.29c-.88-12.08-7.35-21.18-15.46-21.18s-14.59,9.1-15.46,21.18h-3.29c-2.32,0-4.21,1.89-4.21,4.21v31.39c0,2.32,1.89,4.21,4.21,4.21h37.52c2.32,0,4.21-1.9,4.21-4.21v-31.39c0-2.32-1.9-4.21-4.21-4.21ZM248.97,147.79c3.83,0,8.05,5.85,8.81,14.55h-17.62c.76-8.7,4.98-14.55,8.81-14.55ZM252.65,192.63l-7.36.21.88-11c-1.31-1.02-2.18-2.73-2.18-4.67,0-3.12,2.23-5.65,4.98-5.65s4.98,2.53,4.98,5.65c0,2.15-1.05,4.01-2.61,4.97l1.31,10.49Z"/>
      <g>
        <rect class="cls-1" x="226" y="289.06" width="48" height="18"/>
        <g>
          <rect class="cls-3" x="190" y="218.06" width="120" height="18"/>
          <rect class="cls-3" x="190" y="249.06" width="120" height="18"/>
          <g>
            <circle class="cls-7" cx="202.86" cy="226.89" r="2.5"/>
            <circle class="cls-7" cx="212.03" cy="226.89" r="2.5"/>
            <circle class="cls-7" cx="221.19" cy="226.89" r="2.5"/>
            <circle class="cls-7" cx="230.36" cy="226.89" r="2.5"/>
            <circle class="cls-7" cx="239.53" cy="226.89" r="2.5"/>
            <circle class="cls-7" cx="248.69" cy="226.89" r="2.5"/>
          </g>
          <g>
            <circle class="cls-7" cx="202.86" cy="258.05" r="2.5"/>
            <circle class="cls-7" cx="212.03" cy="258.05" r="2.5"/>
            <circle class="cls-7" cx="221.19" cy="258.05" r="2.5"/>
            <circle class="cls-7" cx="230.36" cy="258.05" r="2.5"/>
            <circle class="cls-7" cx="239.53" cy="258.05" r="2.5"/>
            <circle class="cls-7" cx="248.69" cy="258.05" r="2.5"/>
          </g>
        </g>
      </g>
    </g>
    <path class="cls-1" d="M187.33,149.88c3.72,14.43,10.03,35.17,10.03,35.17l-29.46-26.17c-4.76,1.27-9.74,2.02-14.9,2.14v-67.97h56.97c.91,3.87,1.39,7.88,1.39,12,0,18.33-9.44,34.61-24.03,44.83Z"/>
    <g>
      <g>
        <path class="cls-3" d="M189.33,139.88c14.59-10.22,24.03-26.49,24.03-44.83,0-30.93-26.86-56-60-56s-60,25.07-60,56,26.86,56,60,56c5.74,0,11.28-.77,16.54-2.17l27.46,36.17s-4.31-30.74-8.03-45.17Z"/>
        <ellipse class="cls-6" cx="153.36" cy="94.56" rx="51.5" ry="49"/>
      </g>
      <path class="cls-3" d="M166.68,100.12c6.37-4.23,10.59-11.47,10.59-19.67,0-13.02-10.59-23.61-23.61-23.61s-23.61,10.59-23.61,23.61c0,8.21,4.21,15.44,10.59,19.67-14.42,5.32-24.75,19.16-24.75,35.41h6.3c0-17.36,14.12-31.48,31.48-31.48s31.48,14.12,31.48,31.48h6.29c0-16.25-10.33-30.09-24.75-35.41ZM153.66,97.76c-9.55,0-17.31-7.77-17.31-17.31s7.77-17.31,17.31-17.31,17.31,7.77,17.31,17.31-7.77,17.31-17.31,17.31Z"/>
    </g>
    <g>
      <g>
        <path class="cls-3" d="M416.41,334.06v76c0,6.08-4.92,11-11,11h-124c-5.44,0-9.96-3.94-10.84-9.13-.11-.61-.16-1.23-.16-1.87v-76c0-6.08,4.92-11,11-11h124c6.08,0,11,4.92,11,11Z"/>
        <path class="cls-2" d="M416.41,337.54v72.51c0,6.08-4.92,11-11,11h-124c-5.44,0-9.96-3.94-10.84-9.13,3.25-12.38,10.22-26.64,25.17-32.2,28.67-10.67,48.8,3.78,80-4,27.27-6.81,37.12-25.84,40.67-38.18Z"/>
      </g>
      <g>
        <g>
          <rect class="cls-6" x="288.19" y="344.16" width="49.6" height="57.04" rx="3.06" ry="3.06"/>
          <path class="cls-3" d="M320.73,380.53c3.79-2.52,6.29-6.82,6.29-11.69,0-7.74-6.29-14.03-14.03-14.03s-14.03,6.29-14.03,14.03c0,4.88,2.5,9.18,6.29,11.69-8.57,3.16-14.71,11.39-14.71,21.05h3.74c0-10.32,8.39-18.71,18.71-18.71s18.71,8.39,18.71,18.71h3.74c0-9.66-6.14-17.88-14.71-21.05ZM312.99,379.13c-5.67,0-10.29-4.62-10.29-10.29s4.62-10.29,10.29-10.29,10.29,4.62,10.29,10.29-4.62,10.29-10.29,10.29Z"/>
        </g>
        <g>
          <g>
            <circle class="cls-7" cx="350.31" cy="350.45" r="2.5"/>
            <circle class="cls-7" cx="359.47" cy="350.45" r="2.5"/>
            <circle class="cls-7" cx="368.64" cy="350.45" r="2.5"/>
            <circle class="cls-7" cx="377.81" cy="350.45" r="2.5"/>
            <circle class="cls-7" cx="386.97" cy="350.45" r="2.5"/>
            <circle class="cls-7" cx="396.14" cy="350.45" r="2.5"/>
          </g>
          <g>
            <circle class="cls-7" cx="350.31" cy="365.45" r="2.5"/>
            <circle class="cls-7" cx="359.47" cy="365.45" r="2.5"/>
            <circle class="cls-7" cx="368.64" cy="365.45" r="2.5"/>
            <circle class="cls-7" cx="377.81" cy="365.45" r="2.5"/>
            <circle class="cls-7" cx="386.97" cy="365.45" r="2.5"/>
            <circle class="cls-7" cx="396.14" cy="365.45" r="2.5"/>
          </g>
          <g>
            <circle class="cls-7" cx="350.31" cy="378.79" r="2.5"/>
            <circle class="cls-7" cx="359.47" cy="378.79" r="2.5"/>
            <circle class="cls-7" cx="368.64" cy="378.79" r="2.5"/>
            <circle class="cls-7" cx="377.81" cy="378.79" r="2.5"/>
            <circle class="cls-7" cx="386.97" cy="378.79" r="2.5"/>
            <circle class="cls-7" cx="396.14" cy="378.79" r="2.5"/>
          </g>
          <rect class="cls-6" x="347.31" y="388.45" width="50.67" height="9.33"/>
        </g>
      </g>
    </g>
  </g>
</svg>